<svg width="2247.3" height="836.0000000000001" xmlns="http://www.w3.org/2000/svg" xmlns:xlink="http://www.w3.org/1999/xlink"><line x1="732.4375" y1="6.0" x2="501.625" y2="29.0" style="stroke:black; stroke-width:1px;" />
<line x1="501.625" y1="35.0" x2="54.5" y2="58.0" style="stroke:black; stroke-width:1px;" />
<line x1="501.625" y1="35.0" x2="144.0" y2="58.0" style="stroke:black; stroke-width:1px;" />
<line x1="144.0" y1="64.0" x2="144.0" y2="87.0" style="stroke:black; stroke-width:1px;" />
<line x1="144.0" y1="93.0" x2="144.0" y2="116.0" style="stroke:black; stroke-width:1px;" />
<line x1="144.0" y1="122.0" x2="144.0" y2="145.0" style="stroke:black; stroke-width:1px;" />
<line x1="501.625" y1="35.0" x2="228.125" y2="58.0" style="stroke:black; stroke-width:1px;" />
<line x1="501.625" y1="35.0" x2="314.25" y2="58.0" style="stroke:black; stroke-width:1px;" />
<line x1="314.25" y1="64.0" x2="250.75" y2="87.0" style="stroke:black; stroke-width:1px;" />
<line x1="250.75" y1="93.0" x2="219.0" y2="116.0" style="stroke:black; stroke-width:1px;" />
<line x1="219.0" y1="122.0" x2="219.0" y2="145.0" style="stroke:black; stroke-width:1px;" />
<line x1="219.0" y1="151.0" x2="219.0" y2="174.0" style="stroke:black; stroke-width:1px;" />
<line x1="250.75" y1="93.0" x2="282.5" y2="116.0" style="stroke:black; stroke-width:1px;" />
<line x1="282.5" y1="122.0" x2="282.5" y2="145.0" style="stroke:black; stroke-width:1px;" />
<line x1="282.5" y1="151.0" x2="282.5" y2="174.0" style="stroke:black; stroke-width:1px;" />
<line x1="282.5" y1="180.0" x2="282.5" y2="203.0" style="stroke:black; stroke-width:1px;" />
<line x1="314.25" y1="64.0" x2="314.25" y2="87.0" style="stroke:black; stroke-width:1px;" />
<line x1="314.25" y1="64.0" x2="377.75" y2="87.0" style="stroke:black; stroke-width:1px;" />
<line x1="377.75" y1="93.0" x2="346.0" y2="116.0" style="stroke:black; stroke-width:1px;" />
<line x1="346.0" y1="122.0" x2="346.0" y2="145.0" style="stroke:black; stroke-width:1px;" />
<line x1="346.0" y1="151.0" x2="346.0" y2="174.0" style="stroke:black; stroke-width:1px;" />
<line x1="377.75" y1="93.0" x2="409.5" y2="116.0" style="stroke:black; stroke-width:1px;" />
<line x1="409.5" y1="122.0" x2="409.5" y2="145.0" style="stroke:black; stroke-width:1px;" />
<line x1="409.5" y1="151.0" x2="409.5" y2="174.0" style="stroke:black; stroke-width:1px;" />
<line x1="409.5" y1="180.0" x2="409.5" y2="203.0" style="stroke:black; stroke-width:1px;" />
<line x1="501.625" y1="35.0" x2="471.875" y2="58.0" style="stroke:black; stroke-width:1px;" />
<line x1="501.625" y1="35.0" x2="616.0" y2="58.0" style="stroke:black; stroke-width:1px;" />
<line x1="501.625" y1="35.0" x2="760.125" y2="58.0" style="stroke:black; stroke-width:1px;" />
<line x1="501.625" y1="35.0" x2="912.75" y2="58.0" style="stroke:black; stroke-width:1px;" />
<line x1="912.75" y1="64.0" x2="511.0" y2="87.0" style="stroke:black; stroke-width:1px;" />
<line x1="511.0" y1="93.0" x2="483.5" y2="116.0" style="stroke:black; stroke-width:1px;" />
<line x1="483.5" y1="122.0" x2="483.5" y2="145.0" style="stroke:black; stroke-width:1px;" />
<line x1="483.5" y1="151.0" x2="483.5" y2="174.0" style="stroke:black; stroke-width:1px;" />
<line x1="511.0" y1="93.0" x2="517.5" y2="116.0" style="stroke:black; stroke-width:1px;" />
<line x1="511.0" y1="93.0" x2="538.5" y2="116.0" style="stroke:black; stroke-width:1px;" />
<line x1="912.75" y1="64.0" x2="570.375" y2="87.0" style="stroke:black; stroke-width:1px;" />
<line x1="912.75" y1="64.0" x2="629.75" y2="87.0" style="stroke:black; stroke-width:1px;" />
<line x1="629.75" y1="93.0" x2="576.5" y2="116.0" style="stroke:black; stroke-width:1px;" />
<line x1="576.5" y1="122.0" x2="576.5" y2="145.0" style="stroke:black; stroke-width:1px;" />
<line x1="576.5" y1="151.0" x2="576.5" y2="174.0" style="stroke:black; stroke-width:1px;" />
<line x1="629.75" y1="93.0" x2="610.5" y2="116.0" style="stroke:black; stroke-width:1px;" />
<line x1="629.75" y1="93.0" x2="683.0" y2="116.0" style="stroke:black; stroke-width:1px;" />
<line x1="912.75" y1="64.0" x2="729.5" y2="87.0" style="stroke:black; stroke-width:1px;" />
<line x1="912.75" y1="64.0" x2="829.25" y2="87.0" style="stroke:black; stroke-width:1px;" />
<line x1="829.25" y1="93.0" x2="772.5" y2="116.0" style="stroke:black; stroke-width:1px;" />
<line x1="772.5" y1="122.0" x2="772.5" y2="145.0" style="stroke:black; stroke-width:1px;" />
<line x1="772.5" y1="151.0" x2="772.5" y2="174.0" style="stroke:black; stroke-width:1px;" />
<line x1="829.25" y1="93.0" x2="806.5" y2="116.0" style="stroke:black; stroke-width:1px;" />
<line x1="829.25" y1="93.0" x2="886.0" y2="116.0" style="stroke:black; stroke-width:1px;" />
<line x1="912.75" y1="64.0" x2="922.625" y2="87.0" style="stroke:black; stroke-width:1px;" />
<line x1="912.75" y1="64.0" x2="1016.0" y2="87.0" style="stroke:black; stroke-width:1px;" />
<line x1="1016.0" y1="93.0" x2="982.5" y2="116.0" style="stroke:black; stroke-width:1px;" />
<line x1="982.5" y1="122.0" x2="982.5" y2="145.0" style="stroke:black; stroke-width:1px;" />
<line x1="982.5" y1="151.0" x2="982.5" y2="174.0" style="stroke:black; stroke-width:1px;" />
<line x1="1016.0" y1="93.0" x2="1016.5" y2="116.0" style="stroke:black; stroke-width:1px;" />
<line x1="1016.0" y1="93.0" x2="1049.5" y2="116.0" style="stroke:black; stroke-width:1px;" />
<line x1="912.75" y1="64.0" x2="1082.875" y2="87.0" style="stroke:black; stroke-width:1px;" />
<line x1="912.75" y1="64.0" x2="1149.75" y2="87.0" style="stroke:black; stroke-width:1px;" />
<line x1="1149.75" y1="93.0" x2="1099.5" y2="116.0" style="stroke:black; stroke-width:1px;" />
<line x1="1099.5" y1="122.0" x2="1099.5" y2="145.0" style="stroke:black; stroke-width:1px;" />
<line x1="1099.5" y1="151.0" x2="1099.5" y2="174.0" style="stroke:black; stroke-width:1px;" />
<line x1="1149.75" y1="93.0" x2="1133.5" y2="116.0" style="stroke:black; stroke-width:1px;" />
<line x1="1149.75" y1="93.0" x2="1200.0" y2="116.0" style="stroke:black; stroke-width:1px;" />
<line x1="912.75" y1="64.0" x2="1232.125" y2="87.0" style="stroke:black; stroke-width:1px;" />
<line x1="912.75" y1="64.0" x2="1314.5" y2="87.0" style="stroke:black; stroke-width:1px;" />
<line x1="1314.5" y1="93.0" x2="1283.5" y2="116.0" style="stroke:black; stroke-width:1px;" />
<line x1="1283.5" y1="122.0" x2="1283.5" y2="145.0" style="stroke:black; stroke-width:1px;" />
<line x1="1283.5" y1="151.0" x2="1283.5" y2="174.0" style="stroke:black; stroke-width:1px;" />
<line x1="1314.5" y1="93.0" x2="1317.5" y2="116.0" style="stroke:black; stroke-width:1px;" />
<line x1="1314.5" y1="93.0" x2="1345.5" y2="116.0" style="stroke:black; stroke-width:1px;" />
<line x1="501.625" y1="35.0" x2="948.75" y2="58.0" style="stroke:black; stroke-width:1px;" />
<line x1="732.4375" y1="6.0" x2="963.25" y2="29.0" style="stroke:black; stroke-width:1px;" />
<line x1="963.25" y1="35.0" x2="963.25" y2="58.0" style="stroke:black; stroke-width:1px;" />
<rect x="800.25" y="87.0" width="58.0" height="12.0" style="fill:orange; stroke:rgb(0,0,0);" rx="1"/>
<text x="802" y="96" style="font-family:sans-serif;font-size:10px;">
expression
</text>
<rect x="311.5" y="145.0" width="69.0" height="12.0" style="fill:orange; stroke:rgb(0,0,0);" rx="1"/>
<text x="313" y="154" style="font-family:sans-serif;font-size:10px;">
strictIdentifier
</text>
<rect x="1077.5" y="116.0" width="44.0" height="12.0" style="fill:orange; stroke:rgb(0,0,0);" rx="1"/>
<text x="1079" y="125" style="font-family:sans-serif;font-size:10px;">
identifier
</text>
<rect x="1249.0" y="145.0" width="69.0" height="12.0" style="fill:orange; stroke:rgb(0,0,0);" rx="1"/>
<text x="1251" y="154" style="font-family:sans-serif;font-size:10px;">
strictIdentifier
</text>
<rect x="203.5" y="174.0" width="31.0" height="12.0" style="fill:orange; stroke:rgb(0,0,0);" rx="1"/>
<text x="205" y="183" style="font-family:sans-serif;font-size:10px;">
name
</text>
<rect x="801.5" y="116.0" width="10.0" height="12.0" style="fill:orange; stroke:rgb(0,0,0);" rx="1"/>
<text x="803" y="125" style="font-family:sans-serif;font-size:10px;">
=
</text>
<rect x="605.5" y="116.0" width="10.0" height="12.0" style="fill:orange; stroke:rgb(0,0,0);" rx="1"/>
<text x="607" y="125" style="font-family:sans-serif;font-size:10px;">
=
</text>
<rect x="600.75" y="87.0" width="58.0" height="12.0" style="fill:orange; stroke:rgb(0,0,0);" rx="1"/>
<text x="602" y="96" style="font-family:sans-serif;font-size:10px;">
expression
</text>
<rect x="324.0" y="116.0" width="44.0" height="12.0" style="fill:orange; stroke:rgb(0,0,0);" rx="1"/>
<text x="326" y="125" style="font-family:sans-serif;font-size:10px;">
identifier
</text>
<rect x="449.0" y="145.0" width="69.0" height="12.0" style="fill:orange; stroke:rgb(0,0,0);" rx="1"/>
<text x="451" y="154" style="font-family:sans-serif;font-size:10px;">
strictIdentifier
</text>
<rect x="229.25" y="87.0" width="43.0" height="12.0" style="fill:orange; stroke:rgb(0,0,0);" rx="1"/>
<text x="231" y="96" style="font-family:sans-serif;font-size:10px;">
colType
</text>
<rect x="492.625" y="29.0" width="18.0" height="12.0" style="fill:orange; stroke:rgb(0,0,0);" rx="1"/>
<text x="494" y="38" style="font-family:sans-serif;font-size:10px;">
sql
</text>
<rect x="109.5" y="116.0" width="69.0" height="12.0" style="fill:orange; stroke:rgb(0,0,0);" rx="1"/>
<text x="111" y="125" style="font-family:sans-serif;font-size:10px;">
strictIdentifier
</text>
<rect x="260.5" y="145.0" width="44.0" height="12.0" style="fill:orange; stroke:rgb(0,0,0);" rx="1"/>
<text x="262" y="154" style="font-family:sans-serif;font-size:10px;">
identifier
</text>
<rect x="529.5" y="116.0" width="18.0" height="12.0" style="fill:orange; stroke:rgb(0,0,0);" rx="1"/>
<text x="531" y="125" style="font-family:sans-serif;font-size:10px;">
"1"
</text>
<rect x="726.0" y="87.0" width="7.0" height="12.0" style="fill:orange; stroke:rgb(0,0,0);" rx="1"/>
<text x="728" y="96" style="font-family:sans-serif;font-size:10px;">
,
</text>
<rect x="310.75" y="87.0" width="7.0" height="12.0" style="fill:orange; stroke:rgb(0,0,0);" rx="1"/>
<text x="312" y="96" style="font-family:sans-serif;font-size:10px;">
,
</text>
<rect x="887.75" y="58.0" width="50.0" height="12.0" style="fill:orange; stroke:rgb(0,0,0);" rx="1"/>
<text x="889" y="67" style="font-family:sans-serif;font-size:10px;">
optionList
</text>
<rect x="1079.375" y="87.0" width="7.0" height="12.0" style="fill:orange; stroke:rgb(0,0,0);" rx="1"/>
<text x="1081" y="96" style="font-family:sans-serif;font-size:10px;">
,
</text>
<rect x="1271.0" y="174.0" width="25.0" height="12.0" style="fill:orange; stroke:rgb(0,0,0);" rx="1"/>
<text x="1273" y="183" style="font-family:sans-serif;font-size:10px;">
type
</text>
<rect x="960.5" y="116.0" width="44.0" height="12.0" style="fill:orange; stroke:rgb(0,0,0);" rx="1"/>
<text x="962" y="125" style="font-family:sans-serif;font-size:10px;">
identifier
</text>
<rect x="375.0" y="174.0" width="69.0" height="12.0" style="fill:orange; stroke:rgb(0,0,0);" rx="1"/>
<text x="377" y="183" style="font-family:sans-serif;font-size:10px;">
strictIdentifier
</text>
<rect x="248.0" y="174.0" width="69.0" height="12.0" style="fill:orange; stroke:rgb(0,0,0);" rx="1"/>
<text x="250" y="183" style="font-family:sans-serif;font-size:10px;">
strictIdentifier
</text>
<rect x="197.0" y="116.0" width="44.0" height="12.0" style="fill:orange; stroke:rgb(0,0,0);" rx="1"/>
<text x="199" y="125" style="font-family:sans-serif;font-size:10px;">
identifier
</text>
<rect x="1028.5" y="116.0" width="42.0" height="12.0" style="fill:orange; stroke:rgb(0,0,0);" rx="1"/>
<text x="1030" y="125" style="font-family:sans-serif;font-size:10px;">
"xxxxx"
</text>
<rect x="738.0" y="145.0" width="69.0" height="12.0" style="fill:orange; stroke:rgb(0,0,0);" rx="1"/>
<text x="740" y="154" style="font-family:sans-serif;font-size:10px;">
strictIdentifier
</text>
<rect x="1120.75" y="87.0" width="58.0" height="12.0" style="fill:orange; stroke:rgb(0,0,0);" rx="1"/>
<text x="1122" y="96" style="font-family:sans-serif;font-size:10px;">
expression
</text>
<rect x="1285.5" y="87.0" width="58.0" height="12.0" style="fill:orange; stroke:rgb(0,0,0);" rx="1"/>
<text x="1287" y="96" style="font-family:sans-serif;font-size:10px;">
expression
</text>
<rect x="340.0" y="174.0" width="12.0" height="12.0" style="fill:orange; stroke:rgb(0,0,0);" rx="1"/>
<text x="342" y="183" style="font-family:sans-serif;font-size:10px;">
id
</text>
<rect x="947.25" y="29.0" width="32.0" height="12.0" style="fill:orange; stroke:rgb(0,0,0);" rx="1"/>
<text x="949" y="38" style="font-family:sans-serif;font-size:10px;">
ender
</text>
<rect x="110.5" y="145.0" width="67.0" height="12.0" style="fill:orange; stroke:rgb(0,0,0);" rx="1"/>
<text x="112" y="154" style="font-family:sans-serif;font-size:10px;">
sourceName
</text>
<rect x="542.0" y="145.0" width="69.0" height="12.0" style="fill:orange; stroke:rgb(0,0,0);" rx="1"/>
<text x="544" y="154" style="font-family:sans-serif;font-size:10px;">
strictIdentifier
</text>
<rect x="394.0" y="203.0" width="31.0" height="12.0" style="fill:orange; stroke:rgb(0,0,0);" rx="1"/>
<text x="396" y="212" style="font-family:sans-serif;font-size:10px;">
string
</text>
<rect x="284.25" y="58.0" width="60.0" height="12.0" style="fill:orange; stroke:rgb(0,0,0);" rx="1"/>
<text x="286" y="67" style="font-family:sans-serif;font-size:10px;">
colTypeList
</text>
<rect x="257.5" y="116.0" width="50.0" height="12.0" style="fill:orange; stroke:rgb(0,0,0);" rx="1"/>
<text x="259" y="125" style="font-family:sans-serif;font-size:10px;">
dataType
</text>
<rect x="467.875" y="58.0" width="8.0" height="12.0" style="fill:orange; stroke:rgb(0,0,0);" rx="1"/>
<text x="469" y="67" style="font-family:sans-serif;font-size:10px;">
)
</text>
<rect x="750.5" y="116.0" width="44.0" height="12.0" style="fill:orange; stroke:rgb(0,0,0);" rx="1"/>
<text x="752" y="125" style="font-family:sans-serif;font-size:10px;">
identifier
</text>
<rect x="948.0" y="145.0" width="69.0" height="12.0" style="fill:orange; stroke:rgb(0,0,0);" rx="1"/>
<text x="950" y="154" style="font-family:sans-serif;font-size:10px;">
strictIdentifier
</text>
<rect x="1312.5" y="116.0" width="10.0" height="12.0" style="fill:orange; stroke:rgb(0,0,0);" rx="1"/>
<text x="1314" y="125" style="font-family:sans-serif;font-size:10px;">
=
</text>
<rect x="482.0" y="87.0" width="58.0" height="12.0" style="fill:orange; stroke:rgb(0,0,0);" rx="1"/>
<text x="484" y="96" style="font-family:sans-serif;font-size:10px;">
expression
</text>
<rect x="1065.0" y="145.0" width="69.0" height="12.0" style="fill:orange; stroke:rgb(0,0,0);" rx="1"/>
<text x="1067" y="154" style="font-family:sans-serif;font-size:10px;">
strictIdentifier
</text>
<rect x="267.0" y="203.0" width="31.0" height="12.0" style="fill:orange; stroke:rgb(0,0,0);" rx="1"/>
<text x="269" y="212" style="font-family:sans-serif;font-size:10px;">
string
</text>
<rect x="451.0" y="174.0" width="65.0" height="12.0" style="fill:orange; stroke:rgb(0,0,0);" rx="1"/>
<text x="453" y="183" style="font-family:sans-serif;font-size:10px;">
contentType
</text>
<rect x="1128.5" y="116.0" width="10.0" height="12.0" style="fill:orange; stroke:rgb(0,0,0);" rx="1"/>
<text x="1130" y="125" style="font-family:sans-serif;font-size:10px;">
=
</text>
<rect x="919.125" y="87.0" width="7.0" height="12.0" style="fill:orange; stroke:rgb(0,0,0);" rx="1"/>
<text x="921" y="96" style="font-family:sans-serif;font-size:10px;">
,
</text>
<rect x="116.0" y="58.0" width="56.0" height="12.0" style="fill:orange; stroke:rgb(0,0,0);" rx="1"/>
<text x="118" y="67" style="font-family:sans-serif;font-size:10px;">
tableName
</text>
<rect x="512.5" y="116.0" width="10.0" height="12.0" style="fill:orange; stroke:rgb(0,0,0);" rx="1"/>
<text x="514" y="125" style="font-family:sans-serif;font-size:10px;">
=
</text>
<rect x="554.5" y="116.0" width="44.0" height="12.0" style="fill:orange; stroke:rgb(0,0,0);" rx="1"/>
<text x="556" y="125" style="font-family:sans-serif;font-size:10px;">
identifier
</text>
<rect x="1261.5" y="116.0" width="44.0" height="12.0" style="fill:orange; stroke:rgb(0,0,0);" rx="1"/>
<text x="1263" y="125" style="font-family:sans-serif;font-size:10px;">
identifier
</text>
<rect x="599.5" y="58.0" width="33.0" height="12.0" style="fill:orange; stroke:rgb(0,0,0);" rx="1"/>
<text x="601" y="67" style="font-family:sans-serif;font-size:10px;">
option
</text>
<rect x="356.25" y="87.0" width="43.0" height="12.0" style="fill:orange; stroke:rgb(0,0,0);" rx="1"/>
<text x="358" y="96" style="font-family:sans-serif;font-size:10px;">
colType
</text>
<rect x="566.875" y="87.0" width="7.0" height="12.0" style="fill:orange; stroke:rgb(0,0,0);" rx="1"/>
<text x="568" y="96" style="font-family:sans-serif;font-size:10px;">
,
</text>
<rect x="1228.625" y="87.0" width="7.0" height="12.0" style="fill:orange; stroke:rgb(0,0,0);" rx="1"/>
<text x="1230" y="96" style="font-family:sans-serif;font-size:10px;">
,
</text>
<rect x="706.4375" y="0.0" width="52.0" height="12.0" style="fill:orange; stroke:rgb(0,0,0);" rx="1"/>
<text x="708" y="9" style="font-family:sans-serif;font-size:10px;">
statement
</text>
<rect x="1086.0" y="174.0" width="27.0" height="12.0" style="fill:orange; stroke:rgb(0,0,0);" rx="1"/>
<text x="1088" y="183" style="font-family:sans-serif;font-size:10px;">
topic
</text>
<rect x="987.0" y="87.0" width="58.0" height="12.0" style="fill:orange; stroke:rgb(0,0,0);" rx="1"/>
<text x="989" y="96" style="font-family:sans-serif;font-size:10px;">
expression
</text>
<rect x="756.125" y="58.0" width="8.0" height="12.0" style="fill:orange; stroke:rgb(0,0,0);" rx="1"/>
<text x="758" y="67" style="font-family:sans-serif;font-size:10px;">
(
</text>
<rect x="1011.5" y="116.0" width="10.0" height="12.0" style="fill:orange; stroke:rgb(0,0,0);" rx="1"/>
<text x="1013" y="125" style="font-family:sans-serif;font-size:10px;">
=
</text>
<rect x="944.75" y="58.0" width="8.0" height="12.0" style="fill:orange; stroke:rgb(0,0,0);" rx="1"/>
<text x="946" y="67" style="font-family:sans-serif;font-size:10px;">
)
</text>
<rect x="744.0" y="174.0" width="57.0" height="12.0" style="fill:orange; stroke:rgb(0,0,0);" rx="1"/>
<text x="746" y="183" style="font-family:sans-serif;font-size:10px;">
connectUrl
</text>
<rect x="622.5" y="116.0" width="121.0" height="12.0" style="fill:orange; stroke:rgb(0,0,0);" rx="1"/>
<text x="624" y="125" style="font-family:sans-serif;font-size:10px;">
"com.mysql.jdbc.Driver"
</text>
<rect x="0.0" y="58.0" width="109.0" height="12.0" style="fill:orange; stroke:rgb(0,0,0);" rx="1"/>
<text x="2" y="67" style="font-family:sans-serif;font-size:10px;">
create·source·stream
</text>
<rect x="818.5" y="116.0" width="135.0" height="12.0" style="fill:orange; stroke:rgb(0,0,0);" rx="1"/>
<text x="820" y="125" style="font-family:sans-serif;font-size:10px;">
"mq250:9092,mq250:9092"
</text>
<rect x="962.0" y="174.0" width="41.0" height="12.0" style="fill:orange; stroke:rgb(0,0,0);" rx="1"/>
<text x="964" y="183" style="font-family:sans-serif;font-size:10px;">
groupId
</text>
<rect x="461.5" y="116.0" width="44.0" height="12.0" style="fill:orange; stroke:rgb(0,0,0);" rx="1"/>
<text x="463" y="125" style="font-family:sans-serif;font-size:10px;">
identifier
</text>
<rect x="1145.5" y="116.0" width="109.0" height="12.0" style="fill:orange; stroke:rgb(0,0,0);" rx="1"/>
<text x="1147" y="125" style="font-family:sans-serif;font-size:10px;">
"dtwave_access_log"
</text>
<rect x="560.5" y="174.0" width="32.0" height="12.0" style="fill:orange; stroke:rgb(0,0,0);" rx="1"/>
<text x="562" y="183" style="font-family:sans-serif;font-size:10px;">
driver
</text>
<rect x="384.5" y="116.0" width="50.0" height="12.0" style="fill:orange; stroke:rgb(0,0,0);" rx="1"/>
<text x="386" y="125" style="font-family:sans-serif;font-size:10px;">
dataType
</text>
<rect x="959.75" y="58.0" width="7.0" height="12.0" style="fill:orange; stroke:rgb(0,0,0);" rx="1"/>
<text x="961" y="67" style="font-family:sans-serif;font-size:10px;">
;
</text>
<rect x="184.5" y="145.0" width="69.0" height="12.0" style="fill:orange; stroke:rgb(0,0,0);" rx="1"/>
<text x="186" y="154" style="font-family:sans-serif;font-size:10px;">
strictIdentifier
</text>
<rect x="1329.5" y="116.0" width="32.0" height="12.0" style="fill:orange; stroke:rgb(0,0,0);" rx="1"/>
<text x="1331" y="125" style="font-family:sans-serif;font-size:10px;">
"json"
</text>
<rect x="387.5" y="145.0" width="44.0" height="12.0" style="fill:orange; stroke:rgb(0,0,0);" rx="1"/>
<text x="389" y="154" style="font-family:sans-serif;font-size:10px;">
identifier
</text>
<rect x="122.0" y="87.0" width="44.0" height="12.0" style="fill:orange; stroke:rgb(0,0,0);" rx="1"/>
<text x="124" y="96" style="font-family:sans-serif;font-size:10px;">
identifier
</text>
<rect x="224.125" y="58.0" width="8.0" height="12.0" style="fill:orange; stroke:rgb(0,0,0);" rx="1"/>
<text x="226" y="67" style="font-family:sans-serif;font-size:10px;">
(
</text>
</svg>